<svg width="12" height="12" viewBox="0 0 12 12" fill="none" xmlns="http://www.w3.org/2000/svg">
<path d="M6.51565 0.477012C6.31382 0.0955124 5.68615 0.0955124 5.48432 0.477012L0.234319 10.3937C0.18706 10.4826 0.163631 10.5822 0.166314 10.6828C0.168998 10.7834 0.197704 10.8816 0.249634 10.9679C0.301564 11.0541 0.374948 11.1254 0.462635 11.1749C0.550321 11.2243 0.649321 11.2502 0.749986 11.25H11.25C11.3506 11.2502 11.4495 11.2244 11.5371 11.1749C11.6248 11.1255 11.6981 11.0543 11.75 10.9681C11.8019 10.8819 11.8305 10.7837 11.8332 10.6832C11.8358 10.5826 11.8123 10.4831 11.7651 10.3943L6.51565 0.477012ZM6.58332 9.50001H5.41665V8.33335H6.58332V9.50001ZM5.41665 7.16668V4.25001H6.58332L6.5839 7.16668H5.41665Z" fill="#CC3D2D"/>
</svg>
