<svg width="14" height="13" viewBox="0 0 14 13" fill="none" xmlns="http://www.w3.org/2000/svg">
<path d="M7.58933 0.687992C7.35866 0.251992 6.64133 0.251992 6.41066 0.687992L0.410659 12.0213C0.356648 12.1229 0.329872 12.2367 0.332939 12.3517C0.336007 12.4668 0.368813 12.579 0.428162 12.6776C0.487511 12.7761 0.571378 12.8576 0.671591 12.9141C0.771805 12.9706 0.884947 13.0002 0.999993 13H13C13.115 13.0002 13.228 12.9707 13.3282 12.9142C13.4283 12.8577 13.5121 12.7763 13.5714 12.6778C13.6307 12.5793 13.6635 12.4671 13.6665 12.3522C13.6695 12.2372 13.6427 12.1235 13.5887 12.022L7.58933 0.687992ZM7.66666 11H6.33333V9.66666H7.66666V11ZM6.33333 8.33333V4.99999H7.66666L7.66733 8.33333H6.33333Z" fill="#CC3D2D"/>
</svg>
